<svg width="100%" viewBox="0 0 680 380" role="img" xmlns="http://www.w3.org/2000/svg">
  <title>Fondo hero Cruda</title>
  <desc>Fondo oscuro con tonos marrones y naranjas para la sección hero de Cruda</desc>

  <rect width="680" height="380" fill="#1A1008"/>
  <rect x="0" y="0" width="680" height="380" fill="#1C1108"/>

  <ellipse cx="580" cy="60" rx="200" ry="160" fill="#2e1505" opacity="0.8"/>
  <ellipse cx="100" cy="320" rx="180" ry="130" fill="#2a1204" opacity="0.7"/>
  <ellipse cx="340" cy="190" rx="260" ry="180" fill="#231005" opacity="0.5"/>

  <line x1="0" y1="30" x2="680" y2="30" stroke="#3a1a06" stroke-width="0.5"/>
  <line x1="0" y1="80" x2="680" y2="80" stroke="#3a1a06" stroke-width="0.5"/>
  <line x1="0" y1="130" x2="680" y2="130" stroke="#3a1a06" stroke-width="0.5"/>
  <line x1="0" y1="180" x2="680" y2="180" stroke="#3a1a06" stroke-width="0.5"/>
  <line x1="0" y1="230" x2="680" y2="230" stroke="#3a1a06" stroke-width="0.5"/>
  <line x1="0" y1="280" x2="680" y2="280" stroke="#3a1a06" stroke-width="0.5"/>
  <line x1="0" y1="330" x2="680" y2="330" stroke="#3a1a06" stroke-width="0.5"/>

  <line x1="60" y1="0" x2="60" y2="380" stroke="#3a1a06" stroke-width="0.5"/>
  <line x1="160" y1="0" x2="160" y2="380" stroke="#3a1a06" stroke-width="0.5"/>
  <line x1="260" y1="0" x2="260" y2="380" stroke="#3a1a06" stroke-width="0.5"/>
  <line x1="360" y1="0" x2="360" y2="380" stroke="#3a1a06" stroke-width="0.5"/>
  <line x1="460" y1="0" x2="460" y2="380" stroke="#3a1a06" stroke-width="0.5"/>
  <line x1="560" y1="0" x2="560" y2="380" stroke="#3a1a06" stroke-width="0.5"/>

  <circle cx="60" cy="30" r="2" fill="#F4812F" opacity="0.3"/>
  <circle cx="160" cy="80" r="2" fill="#F4812F" opacity="0.2"/>
  <circle cx="260" cy="30" r="2" fill="#F4812F" opacity="0.3"/>
  <circle cx="360" cy="80" r="2" fill="#F4812F" opacity="0.2"/>
  <circle cx="460" cy="30" r="2" fill="#F4812F" opacity="0.3"/>
  <circle cx="560" cy="80" r="2" fill="#F4812F" opacity="0.2"/>
  <circle cx="60" cy="130" r="2" fill="#F4812F" opacity="0.15"/>
  <circle cx="260" cy="130" r="2" fill="#F4812F" opacity="0.2"/>
  <circle cx="460" cy="180" r="2" fill="#F4812F" opacity="0.15"/>
  <circle cx="160" cy="230" r="2" fill="#F4812F" opacity="0.2"/>
  <circle cx="560" cy="280" r="2" fill="#F4812F" opacity="0.15"/>
  <circle cx="360" cy="330" r="2" fill="#F4812F" opacity="0.2"/>

  <path d="M0 360 Q170 300 340 340 Q510 380 680 320 L680 380 L0 380 Z" fill="#0F0804"/>

  <rect x="0" y="0" width="6" height="380" fill="#E8500A" opacity="0.6"/>
  <rect x="674" y="0" width="6" height="380" fill="#E8500A" opacity="0.6"/>
  <rect x="0" y="0" width="680" height="5" fill="#E8500A" opacity="0.4"/>
</svg>
